<mxfile host="app.diagrams.net" agent="Mozilla/5.0 (Macintosh; Intel Mac OS X 10_15_7) AppleWebKit/605.1.15 (KHTML, like Gecko) Version/16.6 Safari/605.1.15" version="25.0.1">
  <diagram name="Page-1" id="2YBvvXClWsGukQMizWep">
    <mxGraphModel dx="570" dy="384" grid="1" gridSize="10" guides="1" tooltips="1" connect="1" arrows="1" fold="1" page="1" pageScale="1" pageWidth="850" pageHeight="1100" math="0" shadow="0">
      <root>
        <mxCell id="0" />
        <mxCell id="1" parent="0" />
        <mxCell id="CObYJEAy56xA2G8EUnc1-6" value="" style="shape=umlLifeline;perimeter=lifelinePerimeter;whiteSpace=wrap;html=1;container=1;dropTarget=0;collapsible=0;recursiveResize=0;outlineConnect=0;portConstraint=eastwest;newEdgeStyle={&quot;curved&quot;:0,&quot;rounded&quot;:0};participant=umlActor;" parent="1" vertex="1">
          <mxGeometry x="145" y="40" width="20" height="570" as="geometry" />
        </mxCell>
        <mxCell id="HJIBpvxVfIBrpGYPyr1l-52" value="alternative" style="shape=umlFrame;whiteSpace=wrap;html=1;pointerEvents=0;width=85;height=30;" vertex="1" parent="1">
          <mxGeometry x="132" y="400" width="300" height="200" as="geometry" />
        </mxCell>
        <mxCell id="CObYJEAy56xA2G8EUnc1-1" value="S&amp;amp;C" style="shape=umlLifeline;perimeter=lifelinePerimeter;whiteSpace=wrap;html=1;container=1;dropTarget=0;collapsible=0;recursiveResize=0;outlineConnect=0;portConstraint=eastwest;newEdgeStyle={&quot;edgeStyle&quot;:&quot;elbowEdgeStyle&quot;,&quot;elbow&quot;:&quot;vertical&quot;,&quot;curved&quot;:0,&quot;rounded&quot;:0};" parent="1" vertex="1">
          <mxGeometry x="360" y="40" width="100" height="570" as="geometry" />
        </mxCell>
        <mxCell id="HJIBpvxVfIBrpGYPyr1l-32" value="" style="html=1;points=[[0,0,0,0,5],[0,1,0,0,-5],[1,0,0,0,5],[1,1,0,0,-5]];perimeter=orthogonalPerimeter;outlineConnect=0;targetShapes=umlLifeline;portConstraint=eastwest;newEdgeStyle={&quot;curved&quot;:0,&quot;rounded&quot;:0};" vertex="1" parent="CObYJEAy56xA2G8EUnc1-1">
          <mxGeometry x="45" y="413" width="10" height="40" as="geometry" />
        </mxCell>
        <mxCell id="HJIBpvxVfIBrpGYPyr1l-40" value="" style="html=1;points=[[0,0,0,0,5],[0,1,0,0,-5],[1,0,0,0,5],[1,1,0,0,-5]];perimeter=orthogonalPerimeter;outlineConnect=0;targetShapes=umlLifeline;portConstraint=eastwest;newEdgeStyle={&quot;curved&quot;:0,&quot;rounded&quot;:0};" vertex="1" parent="CObYJEAy56xA2G8EUnc1-1">
          <mxGeometry x="45" y="306" width="10" height="40" as="geometry" />
        </mxCell>
        <mxCell id="HJIBpvxVfIBrpGYPyr1l-41" value="checkInterviewData(interviewData)" style="html=1;align=left;spacingLeft=2;endArrow=block;rounded=0;edgeStyle=orthogonalEdgeStyle;curved=0;rounded=0;" edge="1" parent="CObYJEAy56xA2G8EUnc1-1">
          <mxGeometry x="-1" y="-62" relative="1" as="geometry">
            <mxPoint x="50" y="301" as="sourcePoint" />
            <Array as="points">
              <mxPoint x="80" y="331" />
            </Array>
            <mxPoint x="55" y="331" as="targetPoint" />
            <mxPoint x="-60" y="-48" as="offset" />
          </mxGeometry>
        </mxCell>
        <mxCell id="HJIBpvxVfIBrpGYPyr1l-12" value="" style="html=1;points=[[0,0,0,0,5],[0,1,0,0,-5],[1,0,0,0,5],[1,1,0,0,-5]];perimeter=orthogonalPerimeter;outlineConnect=0;targetShapes=umlLifeline;portConstraint=eastwest;newEdgeStyle={&quot;curved&quot;:0,&quot;rounded&quot;:0};" vertex="1" parent="CObYJEAy56xA2G8EUnc1-1">
          <mxGeometry x="45" y="203" width="10" height="40" as="geometry" />
        </mxCell>
        <mxCell id="CObYJEAy56xA2G8EUnc1-7" value="Company" style="text;html=1;align=center;verticalAlign=middle;resizable=0;points=[];autosize=1;strokeColor=none;fillColor=none;" parent="1" vertex="1">
          <mxGeometry x="85" y="50" width="70" height="30" as="geometry" />
        </mxCell>
        <mxCell id="CObYJEAy56xA2G8EUnc1-8" value="" style="edgeStyle=elbowEdgeStyle;fontSize=12;html=1;endArrow=blockThin;endFill=1;rounded=0;" parent="1" target="CObYJEAy56xA2G8EUnc1-1" edge="1">
          <mxGeometry width="160" relative="1" as="geometry">
            <mxPoint x="155.11538461538453" y="105" as="sourcePoint" />
            <mxPoint x="370" y="105" as="targetPoint" />
            <Array as="points">
              <mxPoint x="270" y="105" />
            </Array>
          </mxGeometry>
        </mxCell>
        <mxCell id="CObYJEAy56xA2G8EUnc1-9" value="requestApplicationList(internship)" style="text;html=1;align=center;verticalAlign=middle;resizable=0;points=[];autosize=1;strokeColor=none;fillColor=none;" parent="1" vertex="1">
          <mxGeometry x="160" y="80" width="200" height="30" as="geometry" />
        </mxCell>
        <mxCell id="CObYJEAy56xA2G8EUnc1-23" value="redirectToScheduleInterview(applicationData)" style="html=1;verticalAlign=bottom;endArrow=open;dashed=1;endSize=8;curved=0;rounded=0;" parent="1" edge="1" source="CObYJEAy56xA2G8EUnc1-1">
          <mxGeometry x="-0.0028" relative="1" as="geometry">
            <mxPoint x="369.67" y="296" as="sourcePoint" />
            <mxPoint x="155.00333333333336" y="296" as="targetPoint" />
            <mxPoint as="offset" />
            <Array as="points">
              <mxPoint x="260.17" y="296" />
            </Array>
          </mxGeometry>
        </mxCell>
        <mxCell id="CObYJEAy56xA2G8EUnc1-24" value="redirectToScheduleInterview(applicationData, message)" style="html=1;verticalAlign=bottom;endArrow=open;dashed=1;endSize=8;curved=0;rounded=0;" parent="1" edge="1">
          <mxGeometry x="-0.0028" relative="1" as="geometry">
            <mxPoint x="409.5" y="580" as="sourcePoint" />
            <mxPoint x="154.50000000000006" y="580" as="targetPoint" />
            <mxPoint as="offset" />
          </mxGeometry>
        </mxCell>
        <mxCell id="HJIBpvxVfIBrpGYPyr1l-3" value="requestApplicationPage(applicationData)" style="html=1;verticalAlign=bottom;endArrow=open;dashed=1;endSize=8;curved=0;rounded=0;" edge="1" parent="1">
          <mxGeometry x="1" y="-127" relative="1" as="geometry">
            <mxPoint x="155" y="135.00962463907604" as="sourcePoint" />
            <mxPoint x="155.11538461538453" y="135.00000000000006" as="targetPoint" />
            <Array as="points" />
            <mxPoint x="114" y="-102" as="offset" />
          </mxGeometry>
        </mxCell>
        <mxCell id="HJIBpvxVfIBrpGYPyr1l-13" value="writeToDb(internshipData)" style="html=1;align=left;spacingLeft=2;endArrow=block;rounded=0;edgeStyle=orthogonalEdgeStyle;curved=0;rounded=0;" edge="1" parent="1">
          <mxGeometry x="-1" y="-34" relative="1" as="geometry">
            <mxPoint x="404" y="240" as="sourcePoint" />
            <Array as="points">
              <mxPoint x="434" y="240" />
              <mxPoint x="434" y="270" />
            </Array>
            <mxPoint x="410" y="269.99999999999994" as="targetPoint" />
            <mxPoint x="-30" y="-19" as="offset" />
          </mxGeometry>
        </mxCell>
        <mxCell id="HJIBpvxVfIBrpGYPyr1l-22" value="" style="edgeStyle=elbowEdgeStyle;fontSize=12;html=1;endArrow=blockThin;endFill=1;rounded=0;elbow=vertical;" edge="1" parent="1" target="CObYJEAy56xA2G8EUnc1-1">
          <mxGeometry width="160" relative="1" as="geometry">
            <mxPoint x="155" y="225.67000000000002" as="sourcePoint" />
            <mxPoint x="369" y="225.67000000000002" as="targetPoint" />
          </mxGeometry>
        </mxCell>
        <mxCell id="HJIBpvxVfIBrpGYPyr1l-23" value="furtherAssess(applicationData)" style="text;html=1;align=center;verticalAlign=middle;resizable=0;points=[];autosize=1;strokeColor=none;fillColor=none;" vertex="1" parent="1">
          <mxGeometry x="170" y="202" width="190" height="30" as="geometry" />
        </mxCell>
        <mxCell id="HJIBpvxVfIBrpGYPyr1l-38" value="" style="edgeStyle=elbowEdgeStyle;fontSize=12;html=1;endArrow=blockThin;endFill=1;rounded=0;" edge="1" parent="1" target="CObYJEAy56xA2G8EUnc1-1">
          <mxGeometry width="160" relative="1" as="geometry">
            <mxPoint x="155" y="320" as="sourcePoint" />
            <mxPoint x="369.5" y="320" as="targetPoint" />
            <Array as="points">
              <mxPoint x="360" y="304" />
            </Array>
          </mxGeometry>
        </mxCell>
        <mxCell id="HJIBpvxVfIBrpGYPyr1l-39" value="scheduleInterview(interviewData)" style="text;html=1;align=center;verticalAlign=middle;resizable=0;points=[];autosize=1;strokeColor=none;fillColor=none;" vertex="1" parent="1">
          <mxGeometry x="182" y="296" width="200" height="30" as="geometry" />
        </mxCell>
        <mxCell id="HJIBpvxVfIBrpGYPyr1l-45" value="" style="edgeStyle=elbowEdgeStyle;fontSize=12;html=1;endArrow=blockThin;endFill=1;rounded=0;" edge="1" parent="1">
          <mxGeometry width="160" relative="1" as="geometry">
            <mxPoint x="155.11538461538453" y="160" as="sourcePoint" />
            <mxPoint x="404.4999999999999" y="160" as="targetPoint" />
          </mxGeometry>
        </mxCell>
        <mxCell id="HJIBpvxVfIBrpGYPyr1l-48" value="redirectToApplicationPage(applicationData)" style="html=1;verticalAlign=bottom;endArrow=open;dashed=1;endSize=8;curved=0;rounded=0;" edge="1" parent="1" source="CObYJEAy56xA2G8EUnc1-1">
          <mxGeometry x="-0.0013" relative="1" as="geometry">
            <mxPoint x="370" y="196" as="sourcePoint" />
            <mxPoint x="155.11538461538453" y="196.00000000000006" as="targetPoint" />
            <Array as="points">
              <mxPoint x="280.5" y="196" />
            </Array>
            <mxPoint as="offset" />
          </mxGeometry>
        </mxCell>
        <mxCell id="HJIBpvxVfIBrpGYPyr1l-51" value="redirectToApplicationListPage(internship)" style="html=1;verticalAlign=bottom;endArrow=open;dashed=1;endSize=8;curved=0;rounded=0;" edge="1" parent="1" source="CObYJEAy56xA2G8EUnc1-1" target="CObYJEAy56xA2G8EUnc1-6">
          <mxGeometry relative="1" as="geometry">
            <mxPoint x="320" y="180" as="sourcePoint" />
            <mxPoint x="240" y="180" as="targetPoint" />
            <Array as="points">
              <mxPoint x="280" y="130" />
            </Array>
          </mxGeometry>
        </mxCell>
        <mxCell id="HJIBpvxVfIBrpGYPyr1l-42" value="writeToDb(interviewData)" style="html=1;align=left;spacingLeft=2;endArrow=block;rounded=0;edgeStyle=orthogonalEdgeStyle;curved=0;rounded=0;" edge="1" parent="1">
          <mxGeometry x="-1" y="-62" relative="1" as="geometry">
            <mxPoint x="411" y="447" as="sourcePoint" />
            <Array as="points">
              <mxPoint x="441" y="477" />
            </Array>
            <mxPoint x="416" y="477" as="targetPoint" />
            <mxPoint x="-60" y="-48" as="offset" />
          </mxGeometry>
        </mxCell>
        <mxCell id="HJIBpvxVfIBrpGYPyr1l-53" value="if checkInterviewData(interviewData)" style="text;html=1;align=center;verticalAlign=middle;resizable=0;points=[];autosize=1;strokeColor=none;fillColor=none;labelBackgroundColor=default;" vertex="1" parent="1">
          <mxGeometry x="122" y="418" width="220" height="30" as="geometry" />
        </mxCell>
        <mxCell id="HJIBpvxVfIBrpGYPyr1l-54" value="else" style="text;html=1;align=center;verticalAlign=middle;resizable=0;points=[];autosize=1;strokeColor=none;fillColor=none;labelBackgroundColor=default;" vertex="1" parent="1">
          <mxGeometry x="130" y="535" width="50" height="30" as="geometry" />
        </mxCell>
        <mxCell id="HJIBpvxVfIBrpGYPyr1l-55" value="" style="endArrow=none;dashed=1;html=1;rounded=0;exitX=0.065;exitY=0.093;exitDx=0;exitDy=0;exitPerimeter=0;entryX=1.006;entryY=0.649;entryDx=0;entryDy=0;entryPerimeter=0;" edge="1" parent="1">
          <mxGeometry width="50" height="50" relative="1" as="geometry">
            <mxPoint x="133.25" y="531.79" as="sourcePoint" />
            <mxPoint x="433.79999999999995" y="530.8" as="targetPoint" />
          </mxGeometry>
        </mxCell>
        <mxCell id="HJIBpvxVfIBrpGYPyr1l-57" value="redirectToApplicationListPage(internship)" style="html=1;verticalAlign=bottom;endArrow=open;dashed=1;endSize=8;curved=0;rounded=0;" edge="1" parent="1">
          <mxGeometry x="-0.0028" relative="1" as="geometry">
            <mxPoint x="420" y="519" as="sourcePoint" />
            <mxPoint x="165.00000000000006" y="519" as="targetPoint" />
            <mxPoint as="offset" />
          </mxGeometry>
        </mxCell>
        <mxCell id="HJIBpvxVfIBrpGYPyr1l-59" value="&lt;b&gt;SD&lt;/b&gt; Further Assesment for Application" style="shape=umlFrame;whiteSpace=wrap;html=1;pointerEvents=0;width=230;height=30;" vertex="1" parent="1">
          <mxGeometry x="80" width="450" height="620" as="geometry" />
        </mxCell>
      </root>
    </mxGraphModel>
  </diagram>
</mxfile>
